<?xml version="1.0" encoding="UTF-8" standalone="no"?>
<!-- Created with Inkscape (http://www.inkscape.org/) -->

<svg
   width="264.69302mm"
   height="41.251102mm"
   viewBox="0 0 264.69302 41.251102"
   version="1.1"
   id="svg1"
   xml:space="preserve"
   xmlns:xlink="http://www.w3.org/1999/xlink"
   xmlns="http://www.w3.org/2000/svg"
   xmlns:svg="http://www.w3.org/2000/svg"><defs
     id="defs1"><linearGradient
       id="linearGradient2146"><stop
         style="stop-color:#1d1ce4;stop-opacity:0.98823529;"
         offset="0"
         id="stop2146" /><stop
         style="stop-color:#d41732;stop-opacity:1;"
         offset="1"
         id="stop2147" /></linearGradient><linearGradient
       id="linearGradient2144"><stop
         style="stop-color:#1d1ce4;stop-opacity:0.98823529;"
         offset="0"
         id="stop2144" /><stop
         style="stop-color:#e21725;stop-opacity:1;"
         offset="1"
         id="stop2145" /></linearGradient><linearGradient
       id="linearGradient2142"><stop
         style="stop-color:#1d1ce4;stop-opacity:0.98695654;"
         offset="0"
         id="stop2142" /><stop
         style="stop-color:#f11717;stop-opacity:1;"
         offset="1"
         id="stop2143" /></linearGradient><linearGradient
       xlink:href="#linearGradient2142"
       id="linearGradient2143"
       x1="143.40417"
       y1="106.89166"
       x2="219.47188"
       y2="74.480209"
       gradientUnits="userSpaceOnUse"
       gradientTransform="matrix(0.34300389,0,0,0.34300389,-14.805728,1.1540939)" /><linearGradient
       xlink:href="#linearGradient2144"
       id="linearGradient2145"
       x1="134.47006"
       y1="153.1449"
       x2="193.65965"
       y2="153.1449"
       gradientUnits="userSpaceOnUse"
       gradientTransform="matrix(0.34300389,0,0,0.34300389,-14.805728,1.1540939)" /><linearGradient
       xlink:href="#linearGradient2146"
       id="linearGradient2147"
       x1="82.17086"
       y1="119.84"
       x2="153.177"
       y2="119.84"
       gradientUnits="userSpaceOnUse"
       gradientTransform="matrix(0.34300389,0,0,0.34300389,-14.805728,1.1540939)" /></defs><g
     id="layer1"
     transform="translate(-13.379195,-27.035039)"><path
       id="path2078"
       style="display:inline;opacity:1;fill:url(#linearGradient2143);fill-opacity:1;stroke:none;stroke-width:0.499997;stroke-linecap:round;stroke-linejoin:round"
       d="m 28.469893,31.628557 a 13.319017,13.319017 0 0 1 0.713646,-0.577844 c 0.06342,-0.05307 0.127343,-0.105554 0.191753,-0.157437 0.640602,-0.452702 1.31995,-0.847934 2.030113,-1.181073 1.778622,-0.86417 3.727391,-1.321455 5.704756,-1.338651 h 6.100994 3.046278 1.55434 1.516556 1.506183 1.52142 1.567206 1.550321 1.575231 1.555849 l 0.773089,-1.338513 h -1.555868 -1.575212 -1.550322 -1.56749 -1.5214 -1.506183 -1.516576 -1.554336 l -9.920019,9e-6 a 14.657611,14.657611 0 0 0 -6.02629,1.33851 c -0.829583,0.371776 -1.622786,0.819928 -2.369343,1.338651 l -0.01552,0.01268 c -0.304692,0.227517 -0.600394,0.466794 -0.88644,0.717275 m 1.993924,3.594865 a 10.641827,10.641827 0 0 1 0.312685,-0.309059 h 1.38e-4 c 0.194051,-0.17735 0.394612,-0.34745 0.601258,-0.50995 0.418822,-0.308075 0.859699,-0.585067 1.319003,-0.8287 1.551973,-0.862167 3.295143,-1.322384 5.070438,-1.338652 h 5.488112 2.113533 v -1.37e-4 h 1.4e-4 0.394433 c 4.7e-5,3.9e-5 8.3e-5,9.8e-5 1.3e-4,1.37e-4 h 1.159643 0.912246 0.604314 1.506051 1.521552 1.566637 1.550323 1.575098 1.555848 l 0.773089,-1.338514 h -1.555867 -1.57508 -1.550455 -1.566789 -1.521552 -1.506051 -1.5167 -1.496509 -0.05769 -2.572018 l -5.802304,6e-6 c -1.87419,0.01897 -3.717921,0.477451 -5.382696,1.338512 -0.585318,0.290726 -1.145919,0.628889 -1.676078,1.011046 -0.13533,0.10628 -0.268375,0.215459 -0.398996,0.327468 h -1.4e-4 c -0.178713,0.136618 -0.353532,0.278219 -0.524255,0.424659 m 2.03167,3.661126 a 7.9646375,7.9646375 0 0 1 0.05421,-0.06995 c 0.27204,-0.293679 0.565869,-0.566467 0.878921,-0.815975 0.217462,-0.18634 0.444835,-0.360825 0.681088,-0.522676 1.284973,-0.857192 2.79166,-1.32228 4.336226,-1.338514 h 4.792632 1.263255 0.993333 0.561001 1.333114 0.183444 1.506189 0.03312 1.488335 v 1.39e-4 h 0.144038 a 14.657611,14.657611 0 0 0 0,-1.39e-4 h 1.42207 1.550473 1.574947 1.555717 l 0.77322,-1.33865 H 54.72933 53.154251 51.603777 50.037405 48.516003 v 1.38e-4 h -1.32e-4 -0.08876 c -3.8e-5,-2.3e-5 -1.33e-4,2.3e-5 -1.51e-4,0 -2e-5,-2.7e-5 3.7e-5,-1.1e-4 0,-1.38e-4 h -1.417102 -0.377832 -1.138738 -0.846547 -0.707785 -1.678302 l -5.150348,-4e-6 c -1.658172,0.01929 -3.281225,0.481478 -4.700777,1.338652 -0.354187,0.191713 -0.695593,0.406252 -1.021975,0.64221 -0.254105,0.218851 -0.49621,0.451309 -0.725218,0.696305 -0.06205,0.0597 -0.123256,0.120227 -0.183615,0.181608 m 2.114113,3.810516 c 0.239436,-0.404808 0.531864,-0.77593 0.869495,-1.103438 v -1.37e-4 l -0.122384,-0.211263 h 1.38e-4 l 0.122308,0.21126 a 5.2874489,5.2874489 0 0 1 0.211259,-0.21126 5.2874489,5.2874489 0 0 1 1.36e-4,0 c 0.947746,-0.84416 2.167656,-1.319284 3.436692,-1.338516 h 3.980394 0.529878 1.437294 0.116914 1.516709 V 36.405 h 1.29e-4 0.06477 c 2.5e-5,1.9e-5 1.31e-4,-2.4e-5 1.42e-4,0 2.2e-5,2.6e-5 -2.3e-5,1.06e-4 0,1.32e-4 h 1.441022 0.139324 1.382244 V 36.405 h 1.32e-4 0.13325 c 1.8e-5,1.7e-5 1.32e-4,-2.1e-5 1.51e-4,0 1.8e-5,3.4e-5 -1.9e-5,9.9e-5 0,1.32e-4 h 1.432025 V 36.405 h 1.33e-4 0.04939 c 3.8e-5,3.4e-5 0,9.6e-5 0,1.32e-4 h 1.439087 0.0617 1.574965 1.555718 l 0.77322,-1.338649 H 53.183352 51.608406 50.179958 50.057876 48.656001 48.49209 47.085519 46.970722 45.464526 l -0.01571,0.02711 c -0.007,-0.0091 -0.0142,-0.01817 -0.02135,-0.02711 h -1.479616 -0.317932 -1.236402 -0.87464 l -4.408547,4e-6 c -1.409437,0.01995 -2.77592,0.488922 -3.900581,1.33865 -0.153539,0.107767 -0.302457,0.222016 -0.446309,0.342413 -0.333266,0.299704 -0.635295,0.632487 -0.901377,0.993159 m 5.248267,0.003 c -1.11397,0.01627 -2.16929,0.502556 -2.905584,1.33865 -0.01925,0.01892 -0.0383,0.03789 -0.05713,0.05714 a 3.9488541,3.9488541 0 0 0 -0.776923,1.301523 l 0.01609,0.02767 h 1.46234 a 2.6102594,2.6102594 0 0 1 0.03623,-0.05425 c 0.453033,-0.807016 1.299606,-1.313846 2.224909,-1.332012 h 2.962296 0.0023 1.554336 l 0.03857,-0.06683 c 3.7e-5,5.8e-5 1.06e-4,8.5e-5 1.43e-4,1.41e-4 l -0.03857,0.06668 h 0.07705 1.31e-4 1.439227 l 0.02796,-0.04829 -0.02784,0.04829 h 0.05086 1.433827 0.02148 1.379741 0.141671 1.249143 0.315973 1.062223 0.4881 0.879062 0.695884 0.66365 0.891934 l 0.773221,-1.338651 h -1.555716 -0.415457 -1.159357 -0.23947 -1.310986 -0.0971 -1.426781 -0.04141 -1.419869 -0.101694 -1.399385 -0.106661 -1.497608 -0.01898 -1.554334 -0.223569 l -3.51385,-9e-6 v 0" /><path
       id="path2129"
       style="display:inline;opacity:1;fill:url(#linearGradient2145);stroke:none;stroke-width:0.499997;stroke-linecap:round;stroke-linejoin:round"
       d="m 50.01613,39.081356 c 0.01141,0.06579 0.0195,0.131639 0.02858,0.197573 a 13.319017,13.319017 0 0 1 0.157097,1.082541 c 0.01325,0.08169 0.02461,0.163551 0.03559,0.245523 0.0566,0.782381 0.04373,1.568231 -0.03804,2.348369 -0.179431,1.969299 -0.794988,3.873972 -1.802169,5.575703 l -3.152988,5.223109 -1.574309,2.607938 -0.80327,1.330672 -0.783758,1.298344 -0.778399,1.289459 -0.786258,1.302499 -0.809925,1.341692 -0.801208,1.327238 -0.814077,1.348558 -0.804062,1.331981 0.74639,1.353584 0.804063,-1.331982 0.814066,-1.348558 0.801206,-1.327239 0.810066,-1.341928 0.786258,-1.302496 0.778402,-1.289459 0.783756,-1.298344 0.803283,-1.330672 5.126626,-8.492599 a 14.657611,14.657611 0 0 0 1.968467,-5.850882 c 0.110349,-0.902348 0.136655,-1.813013 0.07836,-2.720222 l -0.0018,-0.01986 c -0.04391,-0.445376 -0.108262,-0.888502 -0.192681,-1.327991 -0.0095,-0.0741 -0.01892,-0.148145 -0.0282,-0.222115 m -4.105063,-2.19e-4 c 0.0095,0.04857 0.01892,0.09721 0.02782,0.14591 l 1.13e-4,7.8e-5 0.463645,0.0085 -7.6e-5,1.2e-4 -0.463569,-0.0088 a 10.641827,10.641827 0 0 1 0.136277,0.550885 l -5.7e-5,1.23e-4 c 0.05148,0.257782 0.0935,0.517391 0.125867,0.778285 0.04732,0.517773 0.0566,1.038355 0.02782,1.557481 -0.06397,1.77422 -0.570833,3.504403 -1.474378,5.032656 l -2.836232,4.698414 -1.092272,1.80941 1.17e-4,7.4e-5 -7e-5,1.26e-4 -0.203843,0.337668 c -5.9e-5,1.9e-5 -1.28e-4,2.2e-5 -1.86e-4,4.9e-5 l -0.599302,0.992767 -0.471452,0.780991 -0.312304,0.517351 -0.778318,1.289342 -0.786329,1.302615 -0.809654,1.341219 -0.801206,1.327239 -0.813995,1.34844 -0.804063,1.331982 0.746392,1.353584 0.804049,-1.33197 0.814007,-1.348451 0.801277,-1.327358 0.809714,-1.341337 0.786329,-1.302615 0.778317,-1.289343 0.783839,-1.298461 0.773386,-1.281173 0.02985,-0.04938 1.32922,-2.201919 2.999229,-4.966923 c 0.952349,-1.614307 1.512657,-3.42968 1.635856,-5.299901 0.05357,-0.651336 0.05375,-1.306033 6.81e-4,-1.957406 -0.02119,-0.170782 -0.0458,-0.341108 -0.074,-0.510822 l 5.6e-5,-1.21e-4 c -0.03009,-0.273607 -0.06965,-0.546097 -0.118485,-0.816983 -0.01141,-0.05758 -0.02499,-0.115039 -0.03804,-0.172428 m -4.177777,-3.43e-4 c 0.0095,0.03173 0.01912,0.06352 0.02843,0.09538 a 7.9646375,7.9646375 0 0 1 0.06123,0.155981 c 0.110787,0.384668 0.192503,0.777192 0.244344,1.174144 0.04718,0.28245 0.07893,0.567297 0.09545,0.853201 0.06972,1.543067 -0.310709,3.073315 -1.095032,4.404019 l -2.476829,4.10301 -0.652841,1.08148 -0.513362,0.8504 -0.289922,0.480277 -0.688956,1.141294 -0.09474,0.157039 -0.778399,1.289462 -0.01703,0.02834 -0.769185,1.274182 -1.17e-4,-7.3e-5 -0.07444,0.123312 a 14.657611,14.657611 0 0 0 1.19e-4,7e-5 l -0.734936,1.217443 -0.801265,1.327369 -0.813924,1.348322 -0.803996,1.331865 0.74643,1.353771 0.803991,-1.33185 0.813997,-1.348452 0.801277,-1.327369 0.809501,-1.340984 0.786258,-1.302485 -1.19e-4,-7.3e-5 7.1e-5,-1.16e-4 0.0459,-0.07611 c 3.6e-5,0 3.6e-5,-1.06e-4 7e-5,-1.06e-4 3.6e-5,-1.2e-5 8.3e-5,7e-5 1.19e-4,7e-5 l 0.732351,-1.213191 0.195263,-0.32346 0.588493,-0.974886 0.437498,-0.724736 0.365773,-0.605947 0.867348,-1.436797 2.661321,-4.40914 c 0.840424,-1.429533 1.283538,-3.05791 1.283312,-4.716182 0.01892,-0.402303 0.01173,-0.805457 -0.0216,-1.20682 -0.05604,-0.330634 -0.129936,-0.658041 -0.221326,-0.980705 -0.02655,-0.117047 -0.05533,-0.233569 -0.08637,-0.349493 -0.0106,-0.04058 -0.02207,-0.0811 -0.03362,-0.121532 m -4.328199,3.42e-4 c 0.007,0.01193 0.01325,0.02385 0.01971,0.03581 l 0.0023,0.0047 c 0.228041,0.41972 0.398174,0.86846 0.505704,1.33387 l 1.19e-4,6.8e-5 0.244132,0.0044 -7.1e-5,1.23e-4 -0.244061,-0.0045 a 5.2874489,5.2874489 0 0 1 0.07173,0.290033 5.2874489,5.2874489 0 0 1 -7.1e-5,1.21e-4 c 0.232912,1.247627 0.0095,2.537546 -0.630165,3.63392 l -2.057053,3.407641 -0.273841,0.453632 -0.742792,1.230474 -0.06041,0.100069 -0.783839,1.298467 1.18e-4,7.3e-5 -7.1e-5,1.13e-4 -0.0335,0.05543 c -3.6e-5,4e-6 -4.7e-5,1.21e-4 -7.2e-5,1.25e-4 -3.4e-5,0 -8.1e-5,-7.5e-5 -1.28e-4,-6.9e-5 l -0.744718,1.233672 -0.07196,0.119262 -0.714334,1.183346 1.17e-4,6.7e-5 -7.1e-5,1.21e-4 -0.06889,0.114059 c -2.5e-5,4e-6 -4.7e-5,1.18e-4 -7.2e-5,1.2e-4 -3.4e-5,-2e-6 -8.1e-5,-6.7e-5 -1.18e-4,-7.2e-5 l -0.740067,1.225979 1.06e-4,6.8e-5 -5.9e-5,1.15e-4 -0.02561,0.04226 c -3.5e-5,-7e-6 -7.1e-5,-7.1e-5 -1.18e-4,-7.1e-5 l -0.743725,1.232012 -0.03185,0.05286 -0.813936,1.348335 -0.803994,1.331864 0.746427,1.353773 0.803988,-1.331864 0.813941,-1.348322 0.738215,-1.222905 0.063,-0.104425 0.724494,-1.200144 0.08472,-0.140347 0.726912,-1.20418 0.05935,-0.09831 0.778399,-1.289465 -0.01495,-0.02749 c 0.01173,-0.001 0.02277,-0.003 0.03422,-0.0041 l 0.764666,-1.266726 0.164309,-0.272175 0.638967,-1.058497 0.452008,-0.748783 2.278025,-3.773874 c 0.711315,-1.216934 1.01601,-2.629149 0.869779,-4.03112 -0.01306,-0.187134 -0.03374,-0.373669 -0.06253,-0.559046 -0.0846,-0.441396 -0.213836,-0.873097 -0.385808,-1.288321 -0.0059,-0.01458 -0.01173,-0.02905 -0.01703,-0.0437 -0.0094,-0.02319 -0.01923,-0.04633 -0.02915,-0.06942 m -2.667397,4.608054 c 0.561698,-0.962123 0.690844,-2.116867 0.355568,-3.179295 -0.0059,-0.02617 -0.01287,-0.05231 -0.01945,-0.07841 a 3.9488541,3.9488541 0 0 0 -0.712729,-1.337615 l -0.03197,-6.87e-4 -0.755725,1.251915 a 2.6102594,2.6102594 0 0 1 0.02761,0.05907 c 0.456762,0.804906 0.453154,1.791592 -0.0095,2.593142 l -1.530903,2.536038 -6.97e-4,0.0014 -0.803272,1.330679 0.03728,0.06756 c -7.1e-5,-4e-6 -1.28e-4,4.4e-5 -1.87e-4,4.6e-5 l -0.03728,-0.06744 -0.03988,0.06597 -7e-5,1.21e-4 -0.743795,1.232131 0.0269,0.04889 -0.0269,-0.04882 -0.02631,0.04357 -0.741011,1.22751 -0.0106,0.01836 -0.713034,1.181213 -0.07327,0.121286 -0.645551,1.069398 -0.163305,0.270517 -0.54896,0.909382 -0.252245,0.41786 -0.454297,0.752571 -0.35963,0.595757 -0.342977,0.568156 -0.460946,0.763588 0.746424,1.353775 0.804003,-1.331865 0.214699,-0.355676 0.599149,-0.992535 0.123766,-0.205024 0.677519,-1.122332 0.05013,-0.08315 0.737366,-1.221473 0.02135,-0.03545 0.73379,-1.215554 0.05251,-0.08705 0.723194,-1.198026 0.0551,-0.09132 0.773964,-1.282114 0.0095,-0.01627 0.803272,-1.33067 0.115514,-0.191407 1.815727,-3.007695 v 0" /><path
       id="path2113"
       style="display:inline;opacity:1;fill:url(#linearGradient2147);stroke:none;stroke-width:0.499997;stroke-linecap:round;stroke-linejoin:round"
       d="m 32.524257,54.104865 a 13.319017,13.319017 0 0 1 -0.986082,-0.391924 c -0.07718,-0.02972 -0.154087,-0.06015 -0.230694,-0.09129 -0.706632,-0.340564 -1.381795,-0.742898 -2.01762,-1.20229 -1.618513,-1.136107 -2.963743,-2.618372 -3.938029,-4.339154 l -2.959651,-5.335027 -1.477778,-2.663823 -0.754024,-1.359192 -0.735699,-1.326169 -0.730672,-1.317091 -0.73805,-1.330403 -0.760266,-1.37044 -0.752079,-1.355691 -0.764157,-1.377456 -0.754763,-1.360527 -1.545498,-0.0267 0.754764,1.360521 0.764158,1.377464 0.752076,1.355682 0.760401,1.370685 0.73805,1.330401 0.730666,1.317093 0.735704,1.326165 0.754024,1.359192 4.812284,8.67471 a 14.657611,14.657611 0 0 0 4.093878,4.620377 c 0.727539,0.545074 1.504212,1.021296 2.31998,1.422486 l 0.01874,0.0074 c 0.39666,0.178523 0.801064,0.339302 1.212018,0.481851 m 2.122127,-3.515836 a 10.641827,10.641827 0 0 1 -0.52273,-0.150284 l -6.8e-5,-1.19e-4 c -0.249217,-0.08366 -0.495257,-0.176517 -0.737604,-0.27839 -0.472573,-0.216792 -0.928658,-0.467943 -1.364527,-0.751397 -1.506795,-0.938878 -2.75486,-2.239949 -3.63031,-3.784471 l -2.662334,-4.799093 -1.025299,-1.848189 -1.17e-4,7.1e-5 -6.5e-5,-1.27e-4 -0.191342,-0.344908 c 7e-6,-6e-5 3.7e-5,-1.21e-4 4.9e-5,-1.85e-4 l -0.562549,-1.014041 -0.44255,-0.797729 -0.293147,-0.528437 -0.730603,-1.316973 -0.73812,-1.330521 -0.76,-1.369959 -0.752075,-1.355684 -0.76409,-1.37734 -0.754761,-1.360524 -1.5455,-0.0267 0.754763,1.360522 0.76409,1.377343 0.752145,1.355804 0.760061,1.370084 0.738121,1.330518 0.730605,1.316973 0.735764,1.32629 0.725971,1.308622 0.02799,0.05044 1.247713,2.249109 2.814904,5.074258 c 0.925772,1.629692 2.2211,3.019529 3.781663,4.057585 0.53817,0.370805 1.10583,0.696974 1.697198,0.975187 0.158593,0.06677 0.318597,0.130165 0.479909,0.190044 l 6.9e-5,1.25e-4 c 0.243701,0.106396 0.490883,0.204653 0.741121,0.294599 m 2.164297,-3.585651 a 7.9646375,7.9646375 0 0 1 -0.151344,-0.02263 c -0.38878,-0.09544 -0.769869,-0.220027 -1.139916,-0.372743 -0.268434,-0.09977 -0.531316,-0.213941 -0.787457,-0.34202 -1.372929,-0.707815 -2.51054,-1.79972 -3.274014,-3.142497 l -2.324963,-4.190939 -0.612814,-1.104655 -0.481868,-0.868629 -0.272153,-0.490564 -0.64671,-1.165748 -0.08899,-0.160429 -0.730671,-1.317092 -0.01609,-0.02888 -0.722013,-1.301484 1.21e-4,-6.6e-5 -0.06986,-0.125943 a 14.657611,14.657611 0 0 0 -1.25e-4,7e-5 l -0.689857,-1.243542 -0.752151,-1.355803 -0.764021,-1.377216 -0.754691,-1.360405 -1.545689,-0.02676 0.75469,1.360401 0.764094,1.377339 0.752146,1.355808 0.759863,1.369717 0.738049,1.330397 1.27e-4,-6.4e-5 6.5e-5,1.23e-4 0.04308,0.07766 c -9e-6,2.3e-5 7.8e-5,9.3e-5 6.8e-5,1.17e-4 -1.7e-5,3e-5 -1.14e-4,3.5e-5 -1.26e-4,6.5e-5 l 0.687455,1.239186 0.183292,0.330392 0.552419,0.995772 0.410664,0.740267 0.343355,0.618922 0.814157,1.467591 2.498493,4.50372 c 0.821249,1.440637 2.01278,2.635704 3.450975,3.461211 0.339466,0.21672 0.692687,0.411188 1.057355,0.582131 0.314646,0.116043 0.635366,0.214984 0.960694,0.296381 0.108666,0.03341 0.217951,0.06483 0.32777,0.09423 m 2.24467,-3.71838 c -0.476207,-0.01173 -0.948744,-0.0874 -1.404647,-0.225513 l -1.18e-4,6.1e-5 -0.125356,0.209552 -5.9e-5,-1.25e-4 0.125414,-0.209427 a 5.2874489,5.2874489 0 0 1 -0.287221,-0.08224 5.2874489,5.2874489 0 0 1 -7.1e-5,-1.19e-4 C 34.014788,46.12066 33.007526,45.2844 32.375089,44.184009 l -1.930931,-3.480666 -0.257051,-0.463351 -0.697249,-1.25684 -0.0567,-0.102224 -0.735769,-1.326287 -1.18e-4,6.5e-5 -6.8e-5,-1.18e-4 -0.03146,-0.05663 c 1.8e-5,-2.4e-5 -7.8e-5,-9.2e-5 -6.5e-5,-1.19e-4 1.3e-5,-3.5e-5 1.1e-4,-3.5e-5 1.24e-4,-6.7e-5 l -0.699059,-1.260112 -0.06759,-0.121835 -0.670533,-1.208695 -1.19e-4,6.7e-5 -6.7e-5,-1.23e-4 -0.06464,-0.116499 c 1.8e-5,-1.8e-5 -7.5e-5,-1.03e-4 -6.5e-5,-1.23e-4 3.2e-5,-3.2e-5 10e-5,-3.3e-5 1.24e-4,-6.6e-5 l -0.694693,-1.252244 -1.24e-4,6.6e-5 -6.5e-5,-1.21e-4 -0.02398,-0.0432 c 2.2e-5,-3.4e-5 9e-5,-3.2e-5 1.19e-4,-6.8e-5 l -0.698118,-1.25842 -0.02991,-0.05396 -0.764032,-1.377223 -0.75469,-1.3604 -1.545688,-0.02676 0.754692,1.360404 0.764023,1.377217 0.692952,1.249105 0.05919,0.106718 0.680065,1.225875 0.07953,0.143356 0.682349,1.22998 0.0557,0.100415 0.730672,1.317099 0.03135,3.44e-4 c -0.0045,0.01037 -0.0089,0.02119 -0.01344,0.03176 l 0.717777,1.293866 0.154238,0.278005 0.599798,1.081189 0.424293,0.764827 2.138554,3.855134 c 0.70117,1.222805 1.77416,2.190221 3.062794,2.761471 0.168718,0.082 0.340869,0.156795 0.515933,0.224169 0.424895,0.146422 0.863643,0.249267 1.309364,0.306892 0.0123,0.0017 0.02478,0.0036 0.03717,0.0055 m -2.584239,-4.596651 c 0.554699,0.966174 1.491801,1.653145 2.580121,1.891396 0.02584,0.0077 0.05167,0.01514 0.07764,0.02222 a 3.9488541,3.9488541 0 0 0 1.514893,0.04794 l 0.01647,-0.02744 -0.70939,-1.278739 a 2.6102594,2.6102594 0 0 1 -0.06501,-0.0055 c -0.925462,-0.0047 -1.779348,-0.499133 -2.2441,-1.299448 l -1.437044,-2.590395 -0.001,-0.0017 -0.754025,-1.359196 -0.07717,-0.001 c 4.1e-5,-5.1e-5 2.4e-5,-1.34e-4 5.9e-5,-1.89e-4 l 0.07703,0.001 -0.0374,-0.06738 -6.5e-5,-1.19e-4 -0.698185,-1.25854 -0.05578,-10e-4 0.05572,6.84e-4 -0.02472,-0.04452 -0.695563,-1.253819 -0.01037,-0.01874 -0.669327,-1.20652 -0.06872,-0.12388 -0.605967,-1.092314 -0.153293,-0.276314 -0.515296,-0.928873 -0.236781,-0.426814 -0.426439,-0.768697 -0.337585,-0.608521 -0.321943,-0.580332 -0.432689,-0.779951 -1.545683,-0.02676 0.754694,1.360405 0.201547,0.363295 0.562415,1.013802 0.116177,0.209414 0.63597,1.146393 0.04711,0.08493 0.692143,1.247651 0.02004,0.03618 0.688791,1.241596 0.04933,0.08892 0.678848,1.223699 0.05175,0.09327 0.726509,1.309591 0.0092,0.01665 0.754024,1.359195 0.108459,0.195501 1.704797,3.072954 v 0" /><path
       style="opacity:1;fill:none;stroke:#000000;stroke-width:1.452;stroke-linecap:round;stroke-linejoin:round;stroke-dasharray:none"
       d="m 114.02661,46.938653 a 5.3194747,5.1850613 0 0 1 5.31947,-5.18507 5.3194747,5.1850613 0 0 1 5.31948,5.18507"
       id="path689" /><path
       style="opacity:1;fill:none;stroke:#000000;stroke-width:1.452;stroke-linecap:round;stroke-linejoin:round;stroke-dasharray:none"
       d="m 111.2624,46.938653 a 8.0836862,7.8794261 0 0 1 8.08368,-7.87943 8.0836862,7.8794261 0 0 1 6.20017,2.82358"
       id="path690" /><path
       style="opacity:1;fill:none;stroke:#000000;stroke-width:1.452;stroke-linecap:round;stroke-linejoin:round;stroke-dasharray:none"
       d="m 108.49818,46.938653 a 10.847898,10.573791 0 0 1 10.8479,-10.5738 10.847898,10.573791 0 0 1 7.39166,2.83462"
       id="path691" /><path
       style="opacity:1;fill:none;stroke:#000000;stroke-width:1.452;stroke-linecap:round;stroke-linejoin:round;stroke-dasharray:none"
       d="m 105.73397,46.938653 a 13.612109,13.268156 0 0 1 13.61211,-13.26817 13.612109,13.268156 0 0 1 8.95304,3.27383"
       id="path692" /><path
       style="opacity:1;fill:none;stroke:#000000;stroke-width:1.452;stroke-linecap:round;stroke-linejoin:round;stroke-dasharray:none"
       d="m 102.96977,46.938653 a 16.37632,15.96252 0 0 1 16.37631,-15.96253 16.37632,15.96252 0 0 1 10.87394,4.02688"
       id="path693" /><path
       style="opacity:1;fill:none;stroke:#000000;stroke-width:1.452;stroke-linecap:round;stroke-linejoin:round;stroke-dasharray:none"
       d="m 102.96976,46.938653 v 0 a 5.3194747,5.1850613 0 0 1 -5.319468,5.18505 5.3194747,5.1850613 0 0 1 -5.319476,-5.18505"
       id="path694" /><path
       style="opacity:1;fill:none;stroke:#000000;stroke-width:1.452;stroke-linecap:round;stroke-linejoin:round;stroke-dasharray:none"
       d="m 105.73397,46.938653 a 8.0836862,7.8794261 0 0 1 -8.083678,7.87942 8.0836862,7.8794261 0 0 1 -8.083687,-7.87942"
       id="path695" /><path
       style="opacity:1;fill:none;stroke:#000000;stroke-width:1.452;stroke-linecap:round;stroke-linejoin:round;stroke-dasharray:none"
       d="M 108.49818,46.938653 A 10.847898,10.573791 0 0 1 97.650292,57.512433 10.847898,10.573791 0 0 1 86.802394,46.938653"
       id="path696" /><path
       style="opacity:1;fill:none;stroke:#000000;stroke-width:1.452;stroke-linecap:round;stroke-linejoin:round;stroke-dasharray:none"
       d="M 111.2624,46.938653 A 13.612109,13.268156 0 0 1 97.650292,60.206793 13.612109,13.268156 0 0 1 84.038182,46.938653"
       id="path697" /><path
       style="opacity:1;fill:none;stroke:#000000;stroke-width:1.452;stroke-linecap:round;stroke-linejoin:round;stroke-dasharray:none"
       d="M 114.02661,46.938653 A 16.37632,15.96252 0 0 1 97.650292,62.901163 16.37632,15.96252 0 0 1 81.273972,46.938653"
       id="path698" /><path
       style="opacity:1;fill:none;stroke:#000000;stroke-width:1.452;stroke-linecap:round;stroke-linejoin:round;stroke-dasharray:none"
       d="m 95.647698,51.742243 a 5.3194747,5.1850613 0 0 1 -2.916939,-6.75912 5.3194747,5.1850613 0 0 1 6.934342,-2.84323"
       id="path699" /><path
       style="opacity:1;fill:none;stroke:#000000;stroke-width:1.452;stroke-linecap:round;stroke-linejoin:round;stroke-dasharray:none"
       d="m 94.603897,54.237133 a 8.0836862,7.8794261 0 0 1 -4.432697,-10.27143 8.0836862,7.8794261 0 0 1 10.5377,-4.3207"
       id="path700" /><path
       style="opacity:1;fill:none;stroke:#000000;stroke-width:1.452;stroke-linecap:round;stroke-linejoin:round;stroke-dasharray:none"
       d="M 93.560094,56.732013 A 10.847898,10.573791 0 0 1 87.611641,42.948273 10.847898,10.573791 0 0 1 101.7527,37.150123"
       id="path701" /><path
       style="opacity:1;fill:none;stroke:#000000;stroke-width:1.452;stroke-linecap:round;stroke-linejoin:round;stroke-dasharray:none"
       d="M 92.516293,59.226893 A 13.612109,13.268156 0 0 1 85.052081,41.930833 13.612109,13.268156 0 0 1 102.7965,34.655243"
       id="path702" /><path
       style="opacity:1;fill:none;stroke:#000000;stroke-width:1.452;stroke-linecap:round;stroke-linejoin:round;stroke-dasharray:none"
       d="m 91.472493,61.721783 a 16.37632,15.96252 0 0 1 -8.979971,-20.80837 16.37632,15.96252 0 0 1 21.347788,-8.75306"
       id="path703" /><path
       style="opacity:1;fill:none;stroke:#000000;stroke-width:1.452;stroke-linecap:round;stroke-linejoin:round;stroke-dasharray:none"
       d="m 124.66556,46.938653 v 0 a 5.3194747,5.1850613 0 0 1 -5.31948,5.18505 5.3194747,5.1850613 0 0 1 -5.31947,-5.18505"
       id="path704" /><path
       style="opacity:1;fill:none;stroke:#000000;stroke-width:1.452;stroke-linecap:round;stroke-linejoin:round;stroke-dasharray:none"
       d="m 127.42977,46.938653 a 8.0836862,7.8794261 0 0 1 -8.08369,7.87942 8.0836862,7.8794261 0 0 1 -6.17756,-2.79738"
       id="path705" /><path
       style="opacity:1;fill:none;stroke:#000000;stroke-width:1.452;stroke-linecap:round;stroke-linejoin:round;stroke-dasharray:none"
       d="m 130.19398,46.938653 a 10.847898,10.573791 0 0 1 -10.8479,10.57378 10.847898,10.573791 0 0 1 -7.38623,-2.8297"
       id="path706" /><path
       style="opacity:1;fill:none;stroke:#000000;stroke-width:1.452;stroke-linecap:round;stroke-linejoin:round;stroke-dasharray:none"
       d="m 132.95819,46.938653 a 13.612109,13.268156 0 0 1 -13.61211,13.26814 13.612109,13.268156 0 0 1 -8.94012,-3.26284"
       id="path707" /><path
       style="opacity:1;fill:none;stroke:#000000;stroke-width:1.452;stroke-linecap:round;stroke-linejoin:round;stroke-dasharray:none"
       d="m 135.72241,46.938653 a 16.37632,15.96252 0 0 1 -16.37633,15.96251 16.37632,15.96252 0 0 1 -10.84706,-4.00367"
       id="path708" /><path
       style="opacity:1;fill:none;stroke:#000000;stroke-width:1.452;stroke-linecap:round;stroke-linejoin:round;stroke-dasharray:none"
       d="m 135.72241,46.938653 a 5.3194747,5.1850613 0 0 1 5.31947,-5.18507 5.3194747,5.1850613 0 0 1 5.31947,5.18507"
       id="path709" /><path
       style="opacity:1;fill:none;stroke:#000000;stroke-width:1.452;stroke-linecap:round;stroke-linejoin:round;stroke-dasharray:none"
       d="m 132.95819,46.938653 a 8.0836862,7.8794261 0 0 1 8.08369,-7.87943 8.0836862,7.8794261 0 0 1 5.32199,1.94856"
       id="path710" /><path
       style="opacity:1;fill:none;stroke:#000000;stroke-width:1.452;stroke-linecap:round;stroke-linejoin:round;stroke-dasharray:none"
       d="m 130.19398,46.938653 a 10.847898,10.573791 0 0 1 10.8479,-10.5738 10.847898,10.573791 0 0 1 5.3213,1.35958"
       id="path711" /><path
       style="opacity:1;fill:none;stroke:#000000;stroke-width:1.452;stroke-linecap:round;stroke-linejoin:round;stroke-dasharray:none"
       d="m 127.42977,46.938653 a 13.612109,13.268156 0 0 1 13.61211,-13.26817 13.612109,13.268156 0 0 1 5.32105,1.05575"
       id="path712" /><path
       style="opacity:1;fill:none;stroke:#000000;stroke-width:1.452;stroke-linecap:round;stroke-linejoin:round;stroke-dasharray:none"
       d="m 124.66556,46.938653 a 16.37632,15.96252 0 0 1 16.37632,-15.96253 16.37632,15.96252 0 0 1 5.32062,0.86598"
       id="path713" /><path
       style="opacity:1;fill:none;stroke:#000000;stroke-width:1.452;stroke-linecap:round;stroke-linejoin:round;stroke-dasharray:none"
       d="m 146.36135,46.938653 v 0 a 5.3194747,5.1850613 0 0 1 -5.31947,5.18505 5.3194747,5.1850613 0 0 1 -5.31947,-5.18505"
       id="path714" /><path
       style="opacity:1;fill:none;stroke:#000000;stroke-width:1.452;stroke-linecap:round;stroke-linejoin:round;stroke-dasharray:none"
       d="m 147.24173,51.994853 a 8.0836862,7.8794261 0 0 1 -6.19985,2.82322 8.0836862,7.8794261 0 0 1 -6.17546,-2.79493"
       id="path715" /><path
       style="opacity:1;fill:none;stroke:#000000;stroke-width:1.452;stroke-linecap:round;stroke-linejoin:round;stroke-dasharray:none"
       d="m 148.43836,54.673423 a 10.847898,10.573791 0 0 1 -7.39648,2.83901 10.847898,10.573791 0 0 1 -7.38523,-2.82878"
       id="path716" /><path
       style="opacity:1;fill:none;stroke:#000000;stroke-width:1.452;stroke-linecap:round;stroke-linejoin:round;stroke-dasharray:none"
       d="m 149.9947,56.933163 a 13.612109,13.268156 0 0 1 -8.95282,3.27363 13.612109,13.268156 0 0 1 -8.94012,-3.26284"
       id="path717" /><path
       style="opacity:1;fill:none;stroke:#000000;stroke-width:1.452;stroke-linecap:round;stroke-linejoin:round;stroke-dasharray:none"
       d="m 151.91571,58.874373 a 16.37632,15.96252 0 0 1 -10.87383,4.02679 16.37632,15.96252 0 0 1 -10.84726,-4.00383"
       id="path718" /><path
       style="opacity:1;fill:none;stroke:#000000;stroke-width:1.452;stroke-linecap:round;stroke-linejoin:round;stroke-dasharray:none"
       d="m 168.05714,46.938653 v 0 a 5.3194747,5.1850613 0 0 1 -5.31946,5.18505 5.3194747,5.1850613 0 0 1 -5.31948,-5.18505"
       id="path719" /><path
       style="opacity:1;fill:none;stroke:#000000;stroke-width:1.452;stroke-linecap:round;stroke-linejoin:round;stroke-dasharray:none"
       d="m 170.82137,46.938653 a 8.0836862,7.8794261 0 0 1 -8.08369,7.87942 8.0836862,7.8794261 0 0 1 -8.08369,-7.87942"
       id="path720" /><path
       style="opacity:1;fill:none;stroke:#000000;stroke-width:1.452;stroke-linecap:round;stroke-linejoin:round;stroke-dasharray:none"
       d="m 173.58558,46.938653 a 10.847898,10.573791 0 0 1 -10.8479,10.57378 10.847898,10.573791 0 0 1 -10.8479,-10.57378"
       id="path721" /><path
       style="opacity:1;fill:none;stroke:#000000;stroke-width:1.452;stroke-linecap:round;stroke-linejoin:round;stroke-dasharray:none"
       d="m 176.34978,46.938653 a 13.612109,13.268156 0 0 1 -13.6121,13.26814 13.612109,13.268156 0 0 1 -13.61211,-13.26814"
       id="path722" /><path
       style="opacity:1;fill:none;stroke:#000000;stroke-width:1.452;stroke-linecap:round;stroke-linejoin:round;stroke-dasharray:none"
       d="m 179.114,46.938653 a 16.37632,15.96252 0 0 1 -16.37632,15.96251 16.37632,15.96252 0 0 1 -16.37632,-15.96251"
       id="path723" /><path
       style="opacity:1;fill:none;stroke:#000000;stroke-width:1.452;stroke-linecap:round;stroke-linejoin:round;stroke-dasharray:none"
       d="M 146.36135,46.938653 V 29.544573"
       id="path724" /><path
       style="opacity:1;fill:none;stroke:#000000;stroke-width:1.452;stroke-linecap:round;stroke-linejoin:round;stroke-dasharray:none"
       d="M 149.12557,46.938653 V 29.544573"
       id="path725" /><path
       style="opacity:1;fill:none;stroke:#000000;stroke-width:1.452;stroke-linecap:round;stroke-linejoin:round;stroke-dasharray:none"
       d="M 151.88978,46.938653 V 29.544573"
       id="path726" /><path
       style="opacity:1;fill:none;stroke:#000000;stroke-width:1.452;stroke-linecap:round;stroke-linejoin:round;stroke-dasharray:none"
       d="M 154.65399,46.938653 V 29.544573"
       id="path727" /><path
       style="opacity:1;fill:none;stroke:#000000;stroke-width:1.452;stroke-linecap:round;stroke-linejoin:round;stroke-dasharray:none"
       d="M 157.4182,46.938653 V 29.544573"
       id="path728" /><path
       style="opacity:1;fill:none;stroke:#000000;stroke-width:1.452;stroke-linecap:round;stroke-linejoin:round;stroke-dasharray:none"
       d="M 67.272082,61.494403 V 44.100333"
       id="path729" /><path
       style="opacity:1;fill:none;stroke:#000000;stroke-width:1.452;stroke-linecap:round;stroke-linejoin:round;stroke-dasharray:none"
       d="M 70.036297,61.494403 V 44.100333"
       id="path730" /><path
       style="opacity:1;fill:none;stroke:#000000;stroke-width:1.452;stroke-linecap:round;stroke-linejoin:round;stroke-dasharray:none"
       d="M 72.800505,61.494403 V 44.100333"
       id="path731" /><path
       style="opacity:1;fill:none;stroke:#000000;stroke-width:1.452;stroke-linecap:round;stroke-linejoin:round;stroke-dasharray:none"
       d="M 75.564716,61.494403 V 44.100333"
       id="path732" /><path
       style="opacity:1;fill:none;stroke:#000000;stroke-width:1.452;stroke-linecap:round;stroke-linejoin:round;stroke-dasharray:none"
       d="M 78.32893,61.494403 V 44.100333"
       id="path733" /><path
       style="opacity:1;fill:none;stroke:#000000;stroke-width:1.452;stroke-linecap:round;stroke-linejoin:round;stroke-dasharray:none"
       d="m 67.428449,39.588053 v -9.01817"
       id="path734" /><path
       style="opacity:1;fill:none;stroke:#000000;stroke-width:1.452;stroke-linecap:round;stroke-linejoin:round;stroke-dasharray:none"
       d="m 70.192664,39.573493 v -9.14146"
       id="path735" /><path
       style="opacity:1;fill:none;stroke:#000000;stroke-width:1.452;stroke-linecap:round;stroke-linejoin:round;stroke-dasharray:none"
       d="m 72.956873,39.575723 v -9.06971"
       id="path736" /><path
       style="opacity:1;fill:none;stroke:#000000;stroke-width:1.452;stroke-linecap:round;stroke-linejoin:round;stroke-dasharray:none"
       d="m 75.721083,39.567093 v -9.05245"
       id="path737" /><path
       style="opacity:1;fill:none;stroke:#000000;stroke-width:1.452;stroke-linecap:round;stroke-linejoin:round;stroke-dasharray:none"
       d="m 78.485297,39.594693 v -9.18385"
       id="path738" /><path
       style="opacity:1;fill:none;stroke:#000000;stroke-width:1.452;stroke-linecap:round;stroke-linejoin:round;stroke-dasharray:none"
       d="m 202.36894,46.532403 a 5.3194747,5.1850613 0 0 1 5.31947,-5.18505 5.3194747,5.1850613 0 0 1 5.31947,5.18505"
       id="path739" /><path
       style="opacity:1;fill:none;stroke:#000000;stroke-width:1.452;stroke-linecap:round;stroke-linejoin:round;stroke-dasharray:none"
       d="m 199.60472,46.532403 a 8.0836862,7.8794261 0 0 1 8.08369,-7.87942 8.0836862,7.8794261 0 0 1 8.08369,7.87942"
       id="path740" /><path
       style="opacity:1;fill:none;stroke:#000000;stroke-width:1.452;stroke-linecap:round;stroke-linejoin:round;stroke-dasharray:none"
       d="m 196.8405,46.532403 a 10.847898,10.573791 0 0 1 10.84791,-10.57379 10.847898,10.573791 0 0 1 10.84789,10.57379"
       id="path741" /><path
       style="opacity:1;fill:none;stroke:#000000;stroke-width:1.452;stroke-linecap:round;stroke-linejoin:round;stroke-dasharray:none"
       d="m 194.0763,46.532403 a 13.612109,13.268156 0 0 1 13.61211,-13.26814 13.612109,13.268156 0 0 1 13.6121,13.26814"
       id="path742" /><path
       style="opacity:1;fill:none;stroke:#000000;stroke-width:1.452;stroke-linecap:round;stroke-linejoin:round;stroke-dasharray:none"
       d="m 191.31209,46.532403 a 16.37632,15.96252 0 0 1 16.37632,-15.96252 16.37632,15.96252 0 0 1 16.37632,15.96252"
       id="path743" /><path
       style="opacity:1;fill:none;stroke:#000000;stroke-width:1.452;stroke-linecap:round;stroke-linejoin:round;stroke-dasharray:none"
       d="M 191.31209,61.458423 V 46.399863"
       id="path744" /><path
       style="opacity:1;fill:none;stroke:#000000;stroke-width:1.452;stroke-linecap:round;stroke-linejoin:round;stroke-dasharray:none"
       d="M 194.0763,61.616173 V 46.410633"
       id="path745" /><path
       style="opacity:1;fill:none;stroke:#000000;stroke-width:1.452;stroke-linecap:round;stroke-linejoin:round;stroke-dasharray:none"
       d="m 196.84051,61.494403 v -14.962"
       id="path746" /><path
       style="opacity:1;fill:none;stroke:#000000;stroke-width:1.452;stroke-linecap:round;stroke-linejoin:round;stroke-dasharray:none"
       d="M 199.60472,61.616173 V 46.410633"
       id="path747" /><path
       style="opacity:1;fill:none;stroke:#000000;stroke-width:1.452;stroke-linecap:round;stroke-linejoin:round;stroke-dasharray:none"
       d="M 202.36894,61.616173 V 46.410633"
       id="path748" /><path
       style="opacity:1;fill:none;stroke:#000000;stroke-width:1.452;stroke-linecap:round;stroke-linejoin:round;stroke-dasharray:none"
       d="M 213.00788,61.580193 V 46.521633"
       id="path749" /><path
       style="opacity:1;fill:none;stroke:#000000;stroke-width:1.452;stroke-linecap:round;stroke-linejoin:round;stroke-dasharray:none"
       d="M 215.7721,61.737953 V 46.532403"
       id="path750" /><path
       style="opacity:1;fill:none;stroke:#000000;stroke-width:1.452;stroke-linecap:round;stroke-linejoin:round;stroke-dasharray:none"
       d="M 218.53631,61.616173 V 46.654183"
       id="path751" /><path
       style="opacity:1;fill:none;stroke:#000000;stroke-width:1.452;stroke-linecap:round;stroke-linejoin:round;stroke-dasharray:none"
       d="M 221.30051,61.737953 V 46.532403"
       id="path752" /><path
       style="opacity:1;fill:none;stroke:#000000;stroke-width:1.452;stroke-linecap:round;stroke-linejoin:round;stroke-dasharray:none"
       d="M 224.06473,61.737953 V 46.532403"
       id="path753" /><path
       style="opacity:1;fill:none;stroke:#000000;stroke-width:1.452;stroke-linecap:round;stroke-linejoin:round;stroke-dasharray:none"
       d="m 202.36894,46.410633 h 10.63747"
       id="path754" /><path
       style="opacity:1;fill:none;stroke:#000000;stroke-width:1.452;stroke-linecap:round;stroke-linejoin:round;stroke-dasharray:none"
       d="m 202.36747,49.521213 h 10.63747"
       id="path755" /><path
       style="opacity:1;fill:none;stroke:#000000;stroke-width:1.452;stroke-linecap:round;stroke-linejoin:round;stroke-dasharray:none"
       d="m 202.36894,52.370923 h 10.63747"
       id="path756" /><path
       style="opacity:1;fill:none;stroke:#000000;stroke-width:1.452;stroke-linecap:round;stroke-linejoin:round;stroke-dasharray:none"
       d="M 228.49684,61.643243 V 31.124863"
       id="path757" /><path
       style="opacity:1;fill:none;stroke:#000000;stroke-width:1.452;stroke-linecap:round;stroke-linejoin:round;stroke-dasharray:none"
       d="M 231.26105,61.636673 V 30.994563"
       id="path758" /><path
       style="opacity:1;fill:none;stroke:#000000;stroke-width:1.452;stroke-linecap:round;stroke-linejoin:round;stroke-dasharray:none"
       d="M 234.02524,61.643133 V 31.124963"
       id="path759" /><path
       style="opacity:1;fill:none;stroke:#000000;stroke-width:1.452;stroke-linecap:round;stroke-linejoin:round;stroke-dasharray:none"
       d="M 236.78947,61.639603 V 30.991643"
       id="path760" /><path
       style="opacity:1;fill:none;stroke:#000000;stroke-width:1.452;stroke-linecap:round;stroke-linejoin:round;stroke-dasharray:none"
       d="M 239.55369,61.647703 V 31.257283"
       id="path761" /><path
       style="opacity:1;fill:none;stroke:#000000;stroke-width:1.452;stroke-linecap:round;stroke-linejoin:round;stroke-dasharray:none"
       d="m 255.6504,46.395533 a 5.3194747,5.1850613 0 0 1 5.31948,-5.18506 5.3194747,5.1850613 0 0 1 5.31947,5.18506"
       id="path762" /><path
       style="opacity:1;fill:none;stroke:#000000;stroke-width:1.452;stroke-linecap:round;stroke-linejoin:round;stroke-dasharray:none"
       d="m 252.88619,46.395533 a 8.0836862,7.8794261 0 0 1 8.08369,-7.87943 8.0836862,7.8794261 0 0 1 8.08368,7.87943"
       id="path763" /><path
       style="opacity:1;fill:none;stroke:#000000;stroke-width:1.452;stroke-linecap:round;stroke-linejoin:round;stroke-dasharray:none"
       d="m 250.12198,46.395533 a 10.847898,10.573791 0 0 1 10.8479,-10.57379 10.847898,10.573791 0 0 1 10.84789,10.57379"
       id="path764" /><path
       style="opacity:1;fill:none;stroke:#000000;stroke-width:1.452;stroke-linecap:round;stroke-linejoin:round;stroke-dasharray:none"
       d="m 247.35776,46.395533 a 13.612109,13.268156 0 0 1 13.61212,-13.26816 13.612109,13.268156 0 0 1 13.61211,13.26816"
       id="path765" /><path
       style="opacity:1;fill:none;stroke:#000000;stroke-width:1.452;stroke-linecap:round;stroke-linejoin:round;stroke-dasharray:none"
       d="m 244.59355,46.395533 a 16.37632,15.96252 0 0 1 16.37633,-15.96252 16.37632,15.96252 0 0 1 16.37632,15.96252"
       id="path766" /><path
       style="opacity:1;fill:none;stroke:#000000;stroke-width:1.452;stroke-linecap:round;stroke-linejoin:round;stroke-dasharray:none"
       d="M 244.59355,61.321543 V 46.262983"
       id="path767" /><path
       style="opacity:1;fill:none;stroke:#000000;stroke-width:1.452;stroke-linecap:round;stroke-linejoin:round;stroke-dasharray:none"
       d="M 247.35776,61.479303 V 46.273763"
       id="path768" /><path
       style="opacity:1;fill:none;stroke:#000000;stroke-width:1.452;stroke-linecap:round;stroke-linejoin:round;stroke-dasharray:none"
       d="m 250.12199,61.357533 v -14.962"
       id="path769" /><path
       style="opacity:1;fill:none;stroke:#000000;stroke-width:1.452;stroke-linecap:round;stroke-linejoin:round;stroke-dasharray:none"
       d="M 252.88619,61.479303 V 46.273763"
       id="path770" /><path
       style="opacity:1;fill:none;stroke:#000000;stroke-width:1.452;stroke-linecap:round;stroke-linejoin:round;stroke-dasharray:none"
       d="M 255.6504,61.479303 V 46.273763"
       id="path771" /><path
       style="opacity:1;fill:none;stroke:#000000;stroke-width:1.452;stroke-linecap:round;stroke-linejoin:round;stroke-dasharray:none"
       d="m 191.31209,46.532403 a 16.37632,15.96252 0 0 1 16.37632,-15.96252 16.37632,15.96252 0 0 1 16.37632,15.96252"
       id="path772" /><path
       id="path1682"
       style="display:inline;opacity:1;fill:none;stroke:none;stroke-width:0.499997;stroke-linecap:round;stroke-linejoin:round"
       d="m 35.827415,42.03112 0.187098,0.33706 v 0 a 1.2716649,1.2716649 0 0 0 1.570049,0.378494" /><path
       id="path1950"
       style="display:inline;opacity:1;fill:none;stroke:none;stroke-width:0.499997;stroke-linecap:round;stroke-linejoin:round"
       d="m 35.739104,41.759985 a 1.2716649,1.2716649 0 0 0 0.03009,0.166258 l 0.05816,0.104898" /><path
       id="path1949"
       style="display:inline;opacity:1;fill:none;stroke:none;stroke-width:0.499997;stroke-linecap:round;stroke-linejoin:round"
       d="m 35.735919,41.505742 a 1.2716649,1.2716649 0 0 0 0.0036,0.254243" /><path
       id="path1948"
       style="display:inline;opacity:1;fill:none;stroke:none;stroke-width:0.499997;stroke-linecap:round;stroke-linejoin:round"
       d="M 35.850044,41.079887 A 1.2716649,1.2716649 0 0 0 35.73595,41.505742" /><path
       id="path1947"
       style="display:inline;opacity:1;fill:none;stroke:none;stroke-width:0.499997;stroke-linecap:round;stroke-linejoin:round"
       d="m 35.914453,40.959102 a 1.2716649,1.2716649 0 0 0 -0.06442,0.120785" /><path
       id="path1946"
       style="display:inline;opacity:1;fill:none;stroke:none;stroke-width:0.499997;stroke-linecap:round;stroke-linejoin:round"
       d="m 38.003726,42.385803 a 1.2716649,1.2716649 0 0 0 0.05888,-0.08672 l 0.02808,-0.04671 0.0083,-0.014 a 1.2716649,1.2716649 0 0 0 0.01173,-1.236203 1.2716649,1.2716649 0 0 0 -1.055261,-0.644511 l -0.07021,-10e-4 a 1.2716649,1.2716649 0 0 0 -0.603524,0.150662 1.2716649,1.2716649 0 0 0 -0.467266,0.451816" /><path
       id="path1945"
       style="display:inline;opacity:1;fill:none;stroke:none;stroke-width:0.499997;stroke-linecap:round;stroke-linejoin:round"
       d="m 37.656487,42.706573 a 1.2716649,1.2716649 0 0 0 0.347239,-0.32077" /><path
       id="path1944"
       style="display:inline;opacity:1;fill:none;stroke:none;stroke-width:0.499997;stroke-linecap:round;stroke-linejoin:round"
       d="m 37.584553,42.746674 a 1.2716649,1.2716649 0 0 0 0.03102,-0.01552 1.2716649,1.2716649 0 0 0 0.04094,-0.02457" /><path
       id="path1943"
       style="display:inline;opacity:1;fill:none;stroke:none;stroke-width:0.499997;stroke-linecap:round;stroke-linejoin:round"
       d="m 33.545537,43.534716 c 0.554699,0.966172 1.491797,1.653145 2.580118,1.891396 0.02584,0.0077 0.05168,0.01514 0.07764,0.02222 a 3.9488541,3.9488541 0 0 0 1.514892,0.04794 l 0.01647,-0.02744 -0.70939,-1.278739 a 2.6102594,2.6102594 0 0 1 -0.06501,-0.0055 c -0.925468,-0.0047 -1.779355,-0.499089 -2.244106,-1.299401 l -1.437041,-2.590396 -0.001,-0.0017 -0.754027,-1.359193 -0.07717,-10e-4 c 4.1e-5,-5e-5 2.5e-5,-1.33e-4 5.9e-5,-1.89e-4 l 0.07705,0.001 -0.0374,-0.06738 -6.5e-5,-1.19e-4 -0.698185,-1.25854 -0.05578,-10e-4 0.0557,6.87e-4 -0.02474,-0.04452 -0.695562,-1.25382 -0.01037,-0.01874 -0.669328,-1.206518 -0.06872,-0.123879 -0.605968,-1.092316 -0.153293,-0.276313 -0.515295,-0.928872 -0.236782,-0.426814 -0.426439,-0.768698 -0.337585,-0.608521 -0.321943,-0.580334 -0.432689,-0.779947 -1.545683,-0.02676 0.754694,1.360406 0.201547,0.363295 0.562415,1.013799 0.116176,0.209416 0.635972,1.146393 0.04711,0.08493 0.692145,1.247648 0.02003,0.03618 0.688792,1.241597 0.04932,0.08893 0.678848,1.223698 0.05175,0.09327 0.726509,1.309594 0.0092,0.01665 0.754024,1.359194 0.108458,0.195502 1.704798,3.072953 v 0" /><path
       id="path1942"
       style="display:inline;opacity:1;fill:none;stroke:none;stroke-width:0.499997;stroke-linecap:round;stroke-linejoin:round"
       d="m 36.904774,46.847794 c -0.476206,-0.01173 -0.948743,-0.0874 -1.404648,-0.225515 l -1.16e-4,6.1e-5 -0.125356,0.209553 -5.9e-5,-1.25e-4 0.125413,-0.209428 a 5.2874489,5.2874489 0 0 1 -0.287222,-0.08224 5.2874489,5.2874489 0 0 1 -7e-5,-1.2e-4 C 34.014781,46.12072 33.007519,45.28446 32.375082,44.184068 L 30.444151,40.703403 30.1871,40.240052 29.489852,38.98321 l -0.05671,-0.102224 -0.73577,-1.326286 -1.17e-4,6.3e-5 -6.8e-5,-1.17e-4 -0.03146,-0.05663 c 1.8e-5,-2.4e-5 -7.9e-5,-9.2e-5 -6.5e-5,-1.18e-4 1.3e-5,-3.5e-5 1.1e-4,-3.5e-5 1.23e-4,-6.7e-5 l -0.699058,-1.260114 -0.06759,-0.121836 -0.670533,-1.208692 -1.18e-4,6.5e-5 -6.7e-5,-1.23e-4 -0.06464,-0.116497 c 1.7e-5,-2e-5 -7.5e-5,-1.05e-4 -6.6e-5,-1.23e-4 3.3e-5,-3e-5 1.01e-4,-3.5e-5 1.25e-4,-6.6e-5 l -0.694694,-1.252246 -1.22e-4,6.8e-5 -6.7e-5,-1.21e-4 -0.02398,-0.04319 c 2.2e-5,-3.4e-5 9.1e-5,-3.4e-5 1.18e-4,-6.9e-5 l -0.698117,-1.25842 -0.02991,-0.05396 -0.764032,-1.377221 -0.754691,-1.360402 -1.545687,-0.02676 0.754692,1.360401 0.764023,1.377217 0.692952,1.249107 0.05919,0.106707 0.680065,1.225874 0.07953,0.143356 0.682348,1.22998 0.0557,0.100414 0.730672,1.317101 0.03135,3.43e-4 c -0.0045,0.01037 -0.0089,0.02119 -0.01344,0.03176 l 0.717777,1.293866 0.154239,0.278005 0.599797,1.081189 0.424292,0.764828 2.138555,3.855133 c 0.70117,1.222805 1.774159,2.190221 3.062794,2.761474 0.168719,0.082 0.340869,0.156774 0.515933,0.224166 0.424895,0.146422 0.863642,0.249267 1.309364,0.306892 0.0123,0.0017 0.02478,0.0036 0.03717,0.0055" /><path
       id="path1941"
       style="display:inline;opacity:1;fill:none;stroke:none;stroke-width:0.499997;stroke-linecap:round;stroke-linejoin:round"
       d="m 38.484664,46.820694 -0.0095,-0.01798 -0.07538,-0.135861 c -0.483888,0.130334 -0.983917,0.191226 -1.484949,0.180833 l -0.0059,2.53e-4 c -0.0012,-3.1e-5 -0.0023,-6.1e-5 -0.0036,-9.1e-5" /><path
       id="path1940"
       style="display:inline;opacity:1;fill:none;stroke:none;stroke-width:0.499997;stroke-linecap:round;stroke-linejoin:round"
       d="m 37.680685,48.153393 c 0.470167,-0.04623 0.934129,-0.14258 1.383837,-0.287461 l -0.579858,-1.045238" /><path
       id="path1939"
       style="display:inline;opacity:1;fill:none;stroke:none;stroke-width:0.499997;stroke-linecap:round;stroke-linejoin:round"
       d="m 36.129772,48.131364 c 0.0036,3.45e-4 0.0059,0.001 0.0094,0.0014 0.498117,0.06524 1.00211,0.07363 1.502138,0.02496 l 0.02348,-0.0027 c 0.0059,-3.45e-4 0.0106,-10e-4 0.01609,-0.0017" /><path
       id="path1938"
       style="display:inline;opacity:1;fill:none;stroke:none;stroke-width:0.499997;stroke-linecap:round;stroke-linejoin:round"
       d="m 35.386627,49.362759 a 7.9646375,7.9646375 0 0 1 -0.151343,-0.02263 c -0.38878,-0.09544 -0.769869,-0.220027 -1.139912,-0.372743 -0.268436,-0.09977 -0.531316,-0.213941 -0.787459,-0.342019 -1.372927,-0.707816 -2.510538,-1.799721 -3.274014,-3.142498 l -2.324962,-4.190938 -0.612813,-1.104655 -0.481869,-0.86863 -0.272152,-0.490564 -0.646711,-1.165748 -0.08899,-0.160428 -0.73067,-1.317094 -0.01609,-0.02888 -0.722014,-1.301485 1.2e-4,-6.6e-5 -0.06986,-0.125942 a 14.657611,14.657611 0 0 0 -1.24e-4,6.9e-5 l -0.68986,-1.24354 -0.752148,-1.355805 -0.764022,-1.377216 -0.75469,-1.360406 -1.545689,-0.02676 0.75469,1.360401 0.764093,1.37734 0.752146,1.355807 0.759863,1.369717 0.738049,1.330398 1.27e-4,-6.5e-5 6.6e-5,1.23e-4 0.04308,0.07766 c -9e-6,2.6e-5 8e-5,9.4e-5 7e-5,1.18e-4 -1.7e-5,3.1e-5 -1.14e-4,3.4e-5 -1.26e-4,6.4e-5 l 0.687454,1.239187 0.183275,0.330393 0.552418,0.995773 0.410665,0.740266 0.343353,0.618923 0.814157,1.467589 2.498491,4.503721 c 0.821251,1.440638 2.012782,2.635705 3.450977,3.46121 0.339464,0.21672 0.692687,0.411189 1.057355,0.58213 0.314647,0.116045 0.635367,0.214985 0.960694,0.296383 0.108667,0.03341 0.217948,0.06483 0.327767,0.09423" /><path
       id="path1937"
       style="display:inline;opacity:1;fill:none;stroke:none;stroke-width:0.499997;stroke-linecap:round;stroke-linejoin:round"
       d="m 36.821739,49.57568 c -0.0023,-1.04e-4 -0.0047,-2.07e-4 -0.0083,-3.02e-4 -0.476254,-0.02771 -0.949111,-0.09825 -1.412752,-0.210623 a 7.9646375,7.9646375 0 0 1 -0.01438,-0.0021" /><path
       id="path1936"
       style="display:inline;opacity:1;fill:none;stroke:none;stroke-width:0.499997;stroke-linecap:round;stroke-linejoin:round"
       d="m 38.496677,49.392745 c -0.0106,0.0023 -0.0223,0.0045 -0.03339,0.0068 a 7.9646375,7.9646375 0 0 1 -0.125413,0.01438 c -0.473836,0.09847 -0.955742,0.15352 -1.439571,0.164498 -0.02548,-6.86e-4 -0.05097,-0.0017 -0.07644,-0.0027" /><path
       id="path1935"
       style="display:inline;opacity:1;fill:none;stroke:none;stroke-width:0.499997;stroke-linecap:round;stroke-linejoin:round"
       d="m 39.982202,49.520549 -0.0083,-0.01476 -0.260272,-0.469157 c -0.39559,0.150853 -0.802623,0.269916 -1.2171,0.356062" /><path
       id="path1934"
       style="display:inline;opacity:1;fill:none;stroke:none;stroke-width:0.499997;stroke-linecap:round;stroke-linejoin:round"
       d="m 39.332865,50.596757 c 0.354176,-0.102281 0.702016,-0.225582 1.041586,-0.369161 l -0.392249,-0.707047" /><path
       id="path1933"
       style="display:inline;opacity:1;fill:none;stroke:none;stroke-width:0.499997;stroke-linecap:round;stroke-linejoin:round"
       d="m 37.587125,50.898015 a 9.3032322,9.3032322 0 0 0 0.0394,-0.0068 c 0.471335,-0.04423 0.938694,-0.124392 1.397831,-0.239762 0.09816,-0.01533 0.196053,-0.03206 0.293661,-0.05042 0.0047,-0.0014 0.0095,-0.0027 0.01495,-0.0041" /><path
       id="path1932"
       style="display:inline;opacity:1;fill:none;stroke:none;stroke-width:0.499997;stroke-linecap:round;stroke-linejoin:round"
       d="m 36.066381,50.826927 c 0.496133,0.06524 0.996801,0.09038 1.496969,0.07511 a 9.3032322,9.3032322 0 0 0 0.02383,-0.0039" /><path
       id="path1931"
       style="display:inline;opacity:1;fill:none;stroke:none;stroke-width:0.499997;stroke-linecap:round;stroke-linejoin:round"
       d="m 34.660104,50.566171 c 0.0059,0.0017 0.0123,0.0035 0.01836,0.005 0.453354,0.119809 0.915192,0.205185 1.381418,0.255372 l 0.0047,2.21e-4 0.0023,2.76e-4" /><path
       id="path1930"
       style="display:inline;opacity:1;fill:none;stroke:none;stroke-width:0.499997;stroke-linecap:round;stroke-linejoin:round"
       d="m 33.947984,51.745845 a 10.641827,10.641827 0 0 1 -0.522725,-0.150226 l -6.8e-5,-1.2e-4 C 33.175974,51.511842 32.929934,51.418983 32.687587,51.31711 32.215015,51.100317 31.758929,50.849167 31.32306,50.565712 29.816265,49.626835 28.5682,48.325764 27.69275,46.781241 l -2.662333,-4.799091 -1.0253,-1.848191 -1.17e-4,7.3e-5 -6.5e-5,-1.27e-4 -0.191341,-0.344908 c 6e-6,-6.1e-5 3.6e-5,-1.21e-4 4.8e-5,-1.86e-4 l -0.562548,-1.014043 -0.44255,-0.797731 -0.293147,-0.528434 -0.730603,-1.316975 -0.738119,-1.33052 -0.76,-1.369959 -0.752076,-1.355685 -0.764089,-1.377339 -0.754761,-1.360524 -1.545501,-0.0267 0.754763,1.360523 0.76409,1.377342 0.752145,1.355804 0.760061,1.370085 0.738121,1.330519 0.730605,1.316972 0.735764,1.32629 0.725971,1.308622 0.02799,0.05044 1.247712,2.249108 2.814904,5.074258 c 0.925773,1.629692 2.221101,3.019529 3.781663,4.057586 0.538169,0.370804 1.105829,0.696974 1.697198,0.975188 0.158593,0.06677 0.318597,0.130163 0.479909,0.190043 l 6.9e-5,1.25e-4 c 0.243701,0.106396 0.490883,0.204652 0.741122,0.294598" /><path
       id="path1929"
       style="display:inline;opacity:1;fill:none;stroke:none;stroke-width:0.499997;stroke-linecap:round;stroke-linejoin:round"
       d="m 35.28811,52.115976 a 10.641827,10.641827 0 0 1 -0.0447,-0.0023 l -7.2e-5,-1.21e-4 a 10.641827,10.641827 0 0 1 -1.18e-4,6.6e-5 c -0.431161,-0.09414 -0.856043,-0.215094 -1.272208,-0.36199 l -1.21e-4,6.8e-5 -0.238275,0.39782 -7.3e-5,-1.2e-4 0.238348,-0.3977 a 10.641827,10.641827 0 0 1 -0.02289,-0.0059" /><path
       id="path1928"
       style="display:inline;opacity:1;fill:none;stroke:none;stroke-width:0.499997;stroke-linecap:round;stroke-linejoin:round"
       d="m 36.801917,52.198545 c -0.0047,-2.68e-4 -0.0106,-6.87e-4 -0.01514,-6.87e-4 -0.499711,0.008 -0.999398,-0.01934 -1.495272,-0.08162 l -1.19e-4,6.7e-5 -0.02419,0.04049 -7.2e-5,-1.28e-4 0.0243,-0.04036 a 10.641827,10.641827 0 0 1 -0.0036,-1.61e-4" /><path
       id="path1927"
       style="display:inline;opacity:1;fill:none;stroke:none;stroke-width:0.499997;stroke-linecap:round;stroke-linejoin:round"
       d="m 38.364098,52.192937 -0.0083,0.01306 -6.9e-5,-1.2e-4 0.06064,-0.101394 a 10.641827,10.641827 0 0 1 -0.106765,0.01817 10.641827,10.641827 0 0 1 -1.3e-4,6.8e-5 c -0.493611,0.06025 -0.990866,0.08581 -1.488063,0.07655 -0.007,-1.97e-4 -0.01325,-3.45e-4 -0.01995,-0.001" /><path
       id="path1926"
       style="display:inline;opacity:1;fill:none;stroke:none;stroke-width:0.499997;stroke-linecap:round;stroke-linejoin:round"
       d="m 38.422888,52.103828 c -0.0023,2.12e-4 -0.0036,3.42e-4 -0.0059,6.86e-4 l -1.18e-4,6.6e-5 -0.05272,0.08841" /><path
       id="path1925"
       style="display:inline;opacity:1;fill:none;stroke:none;stroke-width:0.499997;stroke-linecap:round;stroke-linejoin:round"
       d="m 40.209523,51.735344 c -0.165975,0.05334 -0.333212,0.10257 -0.501588,0.147691 -0.42342,0.09978 -0.8526,0.173526 -1.285047,0.22079" /><path
       id="path1924"
       style="display:inline;opacity:1;fill:none;stroke:none;stroke-width:0.499997;stroke-linecap:round;stroke-linejoin:round"
       d="m 41.480222,52.220162 -0.456457,-0.822813 c -0.263389,0.122517 -0.531696,0.234199 -0.804215,0.334765 -0.0036,10e-4 -0.007,0.0021 -0.0106,0.003" /><path
       id="path1923"
       style="display:inline;opacity:1;fill:none;stroke:none;stroke-width:0.499997;stroke-linecap:round;stroke-linejoin:round"
       d="m 41.113458,52.82825 c 0.0059,-0.0021 0.0106,-0.0041 0.01647,-0.0065 0.185867,-0.07491 0.36982,-0.154504 0.551693,-0.238665 l -0.196574,-0.354349 -0.0047,-0.0088" /><path
       id="path1922"
       style="display:inline;opacity:1;fill:none;stroke:none;stroke-width:0.499997;stroke-linecap:round;stroke-linejoin:round"
       d="m 39.246228,53.330674 c 0.0059,-0.0014 0.01211,-0.0027 0.01817,-0.0041 0.374092,-0.06217 0.745046,-0.141993 1.111562,-0.239314 0.24857,-0.07829 0.494531,-0.164668 0.737459,-0.259008" /><path
       id="path1921"
       style="display:inline;opacity:1;fill:none;stroke:none;stroke-width:0.499997;stroke-linecap:round;stroke-linejoin:round"
       d="m 37.558867,53.534744 0.0023,-1.56e-4 6.84e-4,-0.0017 6.84e-4,10e-4 c 0.484715,-0.02145 0.967694,-0.07225 1.446225,-0.152347 0.07941,-0.01627 0.158706,-0.03312 0.237809,-0.05088" /><path
       id="path1920"
       style="display:inline;opacity:1;fill:none;stroke:none;stroke-width:0.499997;stroke-linecap:round;stroke-linejoin:round"
       d="m 35.984287,53.553171 a 11.980421,11.980421 0 0 0 0.06017,0.005 c 0.504795,0.02411 1.010604,0.01627 1.514396,-0.0234" /><path
       id="path1919"
       style="display:inline;opacity:1;fill:none;stroke:none;stroke-width:0.499997;stroke-linecap:round;stroke-linejoin:round"
       d="m 34.575485,53.296628 c 0.0023,3.42e-4 0.0059,0.001 0.0083,0.0014 0.458498,0.112123 0.923237,0.197072 1.391764,0.254358 a 11.980421,11.980421 0 0 0 0.0083,6.84e-4" /><path
       id="path1918"
       style="display:inline;opacity:1;fill:none;stroke:none;stroke-width:0.499997;stroke-linecap:round;stroke-linejoin:round"
       d="m 33.222335,52.948409 c 0.0088,0.003 0.0176,0.0062 0.02638,0.0095 0.36062,0.116157 0.726563,0.21515 1.096573,0.296626 0.07658,0.01495 0.153331,0.02885 0.230196,0.04214" /><path
       id="path1917"
       style="display:inline;opacity:1;fill:none;stroke:none;stroke-width:0.499997;stroke-linecap:round;stroke-linejoin:round"
       d="m 32.524257,54.104865 a 13.319017,13.319017 0 0 1 -0.986082,-0.391924 c -0.07718,-0.02972 -0.154087,-0.06015 -0.230694,-0.09129 -0.706632,-0.340564 -1.381795,-0.742898 -2.01762,-1.20229 -1.618513,-1.136107 -2.963743,-2.618372 -3.938029,-4.339154 l -2.959651,-5.335027 -1.477778,-2.663823 -0.754024,-1.359192 -0.735699,-1.326169 -0.730672,-1.317091 -0.73805,-1.330403 -0.760266,-1.37044 -0.752079,-1.355691 -0.764157,-1.377456 -0.754763,-1.360527 -1.545498,-0.0267 0.754764,1.360521 0.764158,1.377464 0.752076,1.355682 0.760401,1.370685 0.73805,1.330401 0.730666,1.317093 0.735704,1.326165 0.754024,1.359192 4.812284,8.67471 a 14.657611,14.657611 0 0 0 4.093878,4.620377 c 0.727539,0.545074 1.504212,1.021296 2.31998,1.422486 l 0.01874,0.0074 c 0.39666,0.178523 0.801064,0.339302 1.212018,0.481851" /><path
       id="path1916"
       style="display:inline;opacity:1;fill:none;stroke:none;stroke-width:0.499997;stroke-linecap:round;stroke-linejoin:round"
       d="m 33.839375,54.516194 a 13.319017,13.319017 0 0 1 -0.361492,-0.06624 C 33.166325,54.34992 32.858554,54.238428 32.555202,54.115712 a 13.319017,13.319017 0 0 1 -0.03093,-0.01083" /><path
       id="path1915"
       style="display:inline;opacity:1;fill:none;stroke:none;stroke-width:0.499997;stroke-linecap:round;stroke-linejoin:round"
       d="m 35.247583,54.773328 -0.0023,-3.45e-4 -0.02962,0.04914 -0.03363,-0.06072 C 34.735359,54.702963 34.291904,54.62189 33.85343,54.518504 a 13.319017,13.319017 0 0 1 -0.01344,-0.0023" /><path
       id="path1914"
       style="display:inline;opacity:1;fill:none;stroke:none;stroke-width:0.499997;stroke-linecap:round;stroke-linejoin:round"
       d="m 36.74723,54.879325 c -0.501467,-0.007 -1.002179,-0.04249 -1.499647,-0.105993" /><path
       id="path1913"
       style="display:inline;opacity:1;fill:none;stroke:none;stroke-width:0.499997;stroke-linecap:round;stroke-linejoin:round"
       d="m 38.326093,54.855 a 13.319017,13.319017 0 0 1 -0.03102,3.42e-4 c -0.504995,0.03675 -1.011725,0.04475 -1.517629,0.02381 l -0.02207,2.71e-4 c -0.0023,-3.8e-5 -0.0059,-7.6e-5 -0.0083,-1.14e-4" /><path
       id="path1912"
       style="display:inline;opacity:1;fill:none;stroke:none;stroke-width:0.499997;stroke-linecap:round;stroke-linejoin:round"
       d="m 40.097436,54.511112 a 13.319017,13.319017 0 0 1 -0.413569,0.08864 c -0.440105,0.107617 -0.885435,0.192703 -1.334199,0.254935 a 13.319017,13.319017 0 0 1 -0.0236,3.21e-4" /><path
       id="path1911"
       style="display:inline;opacity:1;fill:none;stroke:none;stroke-width:0.499997;stroke-linecap:round;stroke-linejoin:round"
       d="m 42.040198,53.88136 c -0.323723,0.154599 -0.653607,0.296087 -0.988766,0.42406 -0.307325,0.0777 -0.617351,0.144416 -0.929444,0.199995 a 13.319017,13.319017 0 0 1 -0.02455,0.0056" /><path
       id="path1910"
       style="display:inline;opacity:1;fill:none;stroke:none;stroke-width:0.499997;stroke-linecap:round;stroke-linejoin:round"
       d="m 42.976863,54.918597 -0.645775,-1.164071 c -0.08873,0.03952 -0.177804,0.07802 -0.267341,0.115571 -0.0083,0.0038 -0.01571,0.0076 -0.02349,0.01141" /><path
       id="path1909"
       style="display:inline;opacity:1;fill:none;stroke:none;stroke-width:0.499997;stroke-linecap:round;stroke-linejoin:round"
       d="m 42.970149,54.930175 c 0.0036,-0.0017 0.007,-0.0035 0.0106,-0.0051 l -0.0036,-0.0065" /><path
       id="path1908"
       style="display:inline;opacity:1;fill:none;stroke:none;stroke-width:0.499997;stroke-linecap:round;stroke-linejoin:round"
       d="m 40.947665,55.69112 c 0.0095,-0.0023 0.01971,-0.0045 0.02949,-0.007 0.243341,-0.06242 0.485068,-0.131109 0.724882,-0.20596 0.431078,-0.162624 0.854275,-0.345521 1.268117,-0.54801" /><path
       id="path1907"
       style="display:inline;opacity:1;fill:none;stroke:none;stroke-width:0.499997;stroke-linecap:round;stroke-linejoin:round"
       d="m 39.152207,56.076993 c 0.0106,-0.0023 0.02183,-0.0047 0.0328,-0.007 0.394692,-0.06819 0.786447,-0.15246 1.174225,-0.252705 0.196999,-0.03793 0.393216,-0.07993 0.588505,-0.125905" /><path
       id="path1906"
       style="display:inline;opacity:1;fill:none;stroke:none;stroke-width:0.499997;stroke-linecap:round;stroke-linejoin:round"
       d="m 37.513998,56.199919 c 0.0106,8.2e-5 0.02006,-8.3e-5 0.03021,-3.42e-4 0.483687,-0.0059 0.966845,-0.03492 1.447618,-0.08813 0.05357,-0.0106 0.107019,-0.02266 0.16043,-0.03445" /><path
       id="path1905"
       style="display:inline;opacity:1;fill:none;stroke:none;stroke-width:0.499997;stroke-linecap:round;stroke-linejoin:round"
       d="m 35.936386,56.222703 c 0.0047,3.41e-4 0.0095,10e-4 0.01363,0.0012 l 0.0223,-0.0374 0.0204,0.03681 c 0.505891,0.01836 1.012422,0.0106 1.517499,-0.02372 0.0012,2.2e-5 0.0023,3.6e-5 0.0036,4.8e-5" /><path
       id="path1904"
       style="display:inline;opacity:1;fill:none;stroke:none;stroke-width:0.499997;stroke-linecap:round;stroke-linejoin:round"
       d="m 34.511065,55.993143 0.0023,3.42e-4 c 0.470226,0.09965 0.9451,0.1761 1.422829,0.229123" /><path
       id="path1903"
       style="display:inline;opacity:1;fill:none;stroke:none;stroke-width:0.499997;stroke-linecap:round;stroke-linejoin:round"
       d="m 33.104343,55.733832 c 0.0059,0.0017 0.01155,0.0036 0.01741,0.0055 0.39423,0.08899 0.79198,0.16164 1.192216,0.217784 0.06562,0.01268 0.131375,0.02449 0.197174,0.03607" /><path
       id="path1902"
       style="display:inline;opacity:1;fill:none;stroke:none;stroke-width:0.499997;stroke-linecap:round;stroke-linejoin:round"
       d="m 31.825856,55.261682 c 0.01193,0.0041 0.0237,0.0082 0.03559,0.0123 0.229424,0.09768 0.461307,0.189515 0.695424,0.27537 0.181266,0.06507 0.363794,0.126587 0.547479,0.184486" /><path
       style="opacity:0.55;fill:#cccccc;fill-opacity:1;stroke:none;stroke-width:0.499997;stroke-linecap:round;stroke-linejoin:round;stroke-dasharray:none;stroke-opacity:1"
       d="M 40.012346,39.069944 H 52.426342"
       id="path1808" /></g></svg>
